<?xml version="1.0" encoding="utf-8"?>
<!-- Generator: Adobe Illustrator 24.1.1, SVG Export Plug-In . SVG Version: 6.00 Build 0)  -->
<svg version="1.1" id="Layer_1" xmlns="http://www.w3.org/2000/svg" xmlns:xlink="http://www.w3.org/1999/xlink" x="0px" y="0px"
	 viewBox="0 0 57.6 58.4" style="enable-background:new 0 0 57.6 58.4;" xml:space="preserve">
<style type="text/css">
	.st0{fill:#FFFFFF;}
</style>
<path class="st0" d="M51.9,24.6c0.5-1.4,0.7-2.8,0.7-4.3c0-2.4-0.6-4.7-1.8-6.8C48.4,9.4,43.9,6.8,39,6.8c-1,0-1.9,0.1-2.9,0.3
	c-1.3-1.4-2.8-2.6-4.5-3.3C29.9,3,28,2.6,26.1,2.6H26l0,0C20,2.5,14.8,6.3,13,12c-3.8,0.8-7.1,3.2-9,6.5c-1.2,2.1-1.8,4.4-1.8,6.8
	c0,3.4,1.3,6.6,3.5,9.1C5.2,35.8,5,37.2,5,38.7c0,2.4,0.6,4.7,1.8,6.8c2.4,4.2,6.9,6.8,11.8,6.8c1,0,1.9-0.1,2.9-0.3
	c1.3,1.4,2.8,2.6,4.5,3.3c1.7,0.8,3.6,1.2,5.5,1.2h0.1l0,0c5.9,0,11.1-3.8,13-9.4c3.8-0.8,7.1-3.2,9-6.5c1.2-2.1,1.9-4.4,1.9-6.8
	C55.5,30.4,54.2,27.1,51.9,24.6L51.9,24.6z M31.6,53L31.6,53c-2.4,0-4.7-0.8-6.5-2.3c0.1-0.1,0.2-0.1,0.3-0.2l10.8-6.2
	c0.3-0.1,0.5-0.4,0.6-0.6c0.2-0.3,0.2-0.6,0.2-0.9V27.6l4.5,2.6l0.1,0.1v12.6C41.7,48.5,37.2,53,31.6,53z M9.9,43.7
	c-0.9-1.5-1.4-3.3-1.4-5.1c0-0.6,0-1.2,0.1-1.7c0.1,0,0.2,0.1,0.3,0.2l10.8,6.2c0.3,0.2,0.6,0.2,0.9,0.2s0.6-0.1,0.9-0.2l13.1-7.6
	V41c0,0,0,0,0,0.1s0,0,0,0.1l-10.9,6.3c-1.5,0.9-3.3,1.4-5.1,1.4c-1.8,0-3.5-0.5-5.1-1.4S10.8,45.3,9.9,43.7L9.9,43.7z M7,20.2
	c1.2-2.1,3.1-3.6,5.3-4.4c0,0.1,0,0.3,0,0.4v12.4l0,0c0,0.3,0.1,0.6,0.2,0.9c0.2,0.3,0.4,0.5,0.6,0.6l13.1,7.6l-4.5,2.6
	c0,0,0,0-0.1,0c0,0,0,0-0.1,0L10.6,34c-1.5-0.9-2.8-2.2-3.7-3.7S5.5,27,5.5,25.2C5.7,23.5,6.2,21.8,7,20.2L7,20.2z M44.4,28.9
	l-13.1-7.6l4.5-2.6c0,0,0,0,0.1,0c0,0,0,0,0.1,0L46.9,25c3.1,1.8,5.1,5.2,5.1,8.8c0,4.3-2.7,8-6.6,9.5V30.5l0,0
	C45.3,29.8,44.9,29.3,44.4,28.9z M48.9,22.1c-0.1,0-0.2-0.1-0.3-0.2l-10.8-6.2c-0.3-0.2-0.6-0.2-0.9-0.2c-0.3,0-0.6,0.1-0.9,0.2
	l-13.1,7.6V18l0,0c0,0,0,0,0-0.1c0,0,0,0,0-0.1l10.9-6.3c1.5-0.9,3.3-1.4,5.1-1.4c5.6,0,10.1,4.5,10.1,10.1
	C49.1,21,49,21.6,48.9,22.1L48.9,22.1z M20.5,31.5L16,28.9c0,0,0,0-0.1,0c0,0,0,0,0-0.1V16.2c0-5.6,4.5-10.1,10.1-10.1
	c2.4,0,4.7,0.8,6.5,2.3c-0.1,0.1-0.2,0.1-0.3,0.2l-10.8,6.2c-0.3,0.1-0.5,0.4-0.6,0.6c-0.2,0.3-0.2,0.6-0.2,0.9l0,0v15.2H20.5z
	 M22.9,26.2l5.9-3.4l5.9,3.4V33l-5.9,3.4L22.9,33C22.9,33,22.9,26.2,22.9,26.2z"/>
</svg>
