<svg width="107" height="80" viewBox="0 0 107 80" fill="none" xmlns="http://www.w3.org/2000/svg">
<g filter="url(#filter0_d_1969_5650)">
<path d="M37.4902 70.3921L37.3706 70.2271C34.8094 66.7039 33.9179 63.0201 31.1565 60.0474L27.8467 56.4844L29.9272 49.1012L34.0197 48.3305C34.0197 48.3305 37.1435 58.8141 40.0833 61.1856C41.04 62.2155 41.5178 64.1123 41.149 65.4196L41.1304 65.4857L44.392 69.8897L39.0813 70.9627C38.6176 71.157 38.034 70.9775 37.4902 70.3921Z" fill="url(#paint0_linear_1969_5650)"/>
<path d="M45.7846 68.6439L47.044 64.1808C47.4121 62.8758 46.9352 60.9823 45.9802 59.9541C43.0459 57.5823 40.1662 54.8801 37.3677 51.8671L34.0618 48.3079L31.9851 55.6784L35.2888 59.2352C38.0452 62.2028 40.7138 65.4606 43.2703 68.9777L43.3896 69.1423C44.3423 70.1726 45.4165 69.949 45.7846 68.6439Z" fill="url(#paint1_linear_1969_5650)"/>
<path d="M43.0701 69.0335C40.5149 65.518 37.8476 62.2618 35.0926 59.2956L31.7905 55.7404L33.8662 48.3733L34.1032 48.6284L32.1363 55.6061L35.4383 59.1613C38.1934 62.1275 40.8607 65.3837 43.4159 68.8992L43.5351 69.0638C44.0047 69.5693 44.5016 69.7697 44.9296 69.6923C44.4391 69.9964 43.7895 69.8488 43.1871 69.2002L43.0701 69.0335Z" fill="url(#paint2_radial_1969_5650)"/>
<path d="M36.4921 57.3572L40.1579 60.4869L38.7612 60.7717L35.7223 57.4995L36.4921 57.3572Z" fill="url(#paint3_linear_1969_5650)"/>
<path d="M36.5062 57.3394L40.1843 60.4788L40.967 57.805L37.2711 54.651L36.5062 57.3394Z" fill="url(#paint4_linear_1969_5650)"/>
<path d="M37.2844 54.6621L36.5138 57.3703L35.7379 57.5119L36.5198 54.8022L37.2844 54.6621Z" fill="url(#paint5_linear_1969_5650)"/>
<path d="M45.7846 68.6439L47.044 64.1808C47.4121 62.8758 46.9352 60.9823 45.9802 59.9541C43.0459 57.5823 40.1662 54.8801 37.3677 51.8671L34.0618 48.3079L31.9851 55.6784L35.2888 59.2352C38.0452 62.2028 40.7138 65.4606 43.2703 68.9777L43.3896 69.1423C44.3423 70.1726 45.4165 69.949 45.7846 68.6439Z" fill="url(#paint6_radial_1969_5650)"/>
<path d="M11.5008 56.8876C13.4113 58.944 15.4389 59.7809 17.1872 59.4714C17.239 59.4635 26.1956 57.7298 26.2451 57.7195C28.0053 57.3365 25.8631 56.4854 26.6122 53.8321C28.1196 48.49 26.1657 40.745 22.2512 36.5314C20.3162 34.4486 22.1247 32.7402 20.3605 33.0824C20.3109 33.0927 11.1054 34.9904 11.0558 35.0007C9.31794 35.4031 7.87966 36.96 7.13983 39.5869C5.63458 44.9314 7.58629 52.674 11.5008 56.8876Z" fill="url(#paint7_linear_1969_5650)"/>
<path d="M11.5008 56.8876C13.4113 58.944 15.4389 59.7809 17.1872 59.4714C17.239 59.4635 26.1956 57.7298 26.2451 57.7195C28.0053 57.3365 25.8631 56.4854 26.6122 53.8321C28.1196 48.49 26.1657 40.745 22.2512 36.5314C20.3162 34.4486 22.1247 32.7402 20.3605 33.0824C20.3109 33.0927 11.1054 34.9904 11.0558 35.0007C9.31794 35.4031 7.87966 36.96 7.13983 39.5869C5.63458 44.9314 7.58629 52.674 11.5008 56.8876Z" fill="url(#paint8_radial_1969_5650)"/>
<path d="M20.7973 54.9672C24.7087 59.1776 29.0975 58.2596 30.6016 52.9237C32.1079 47.5857 30.1555 39.8466 26.244 35.6362C22.3325 31.4259 17.9437 32.3438 16.4397 37.6797C14.9334 43.0178 16.8858 50.7569 20.7973 54.9672Z" fill="url(#paint9_linear_1969_5650)"/>
<path d="M15.9815 37.8292C16.7015 35.273 18.0854 33.7357 19.7601 33.2873C18.4247 33.9511 17.3403 35.3843 16.7295 37.5497C15.2247 42.8826 17.1752 50.6143 21.0828 54.8207C23.1166 57.0099 25.2802 57.8095 27.0989 57.321C25.1455 58.2908 22.6553 57.5981 20.3348 55.1001C16.4249 50.8914 14.4767 43.1621 15.9815 37.8292Z" fill="url(#paint10_radial_1969_5650)"/>
<path d="M22.1934 54.2737C24.0523 56.2746 26.0236 57.0859 27.7239 56.7864C27.7351 56.7849 29.3005 56.4721 31.5177 56.0283C40.77 54.174 50.555 55.2914 59.4211 59.3421C59.448 59.3529 59.4592 59.3604 59.4614 59.3583C62.3558 58.7286 52.6889 18.3126 49.7929 18.8723C49.7929 18.8723 49.7906 18.8744 49.7861 18.8786C43.7198 25.5 35.779 30.1128 26.8556 31.9479C23.9616 32.5415 21.7758 32.992 21.7645 32.9935C20.0746 33.386 18.6781 34.8999 17.9563 37.4539C16.4916 42.644 18.3865 50.1761 22.1934 54.2737Z" fill="url(#paint11_linear_1969_5650)"/>
<path d="M53.1961 55.2194C56.5193 58.7966 60.0445 60.2477 63.0827 59.7122C63.1727 59.6956 66.0416 59.2414 66.1339 59.2226C69.1958 58.5582 65.4687 57.0805 66.7702 52.4638C69.3894 43.1753 65.9948 29.707 59.1882 22.3802C55.8227 18.7576 58.9668 15.7883 55.9011 16.3805C55.8156 16.3974 52.5058 17.1401 52.4225 17.1594C49.4029 17.8603 46.9016 20.5678 45.6141 25.1358C42.9971 34.4267 46.3917 47.8951 53.1961 55.2194Z" fill="url(#paint12_linear_1969_5650)"/>
<path d="M56.6303 54.5263C63.4364 61.8525 71.079 60.2623 73.6966 50.969C76.3165 41.6781 72.921 28.2064 66.1126 20.8778C59.3064 13.5516 51.6639 15.1419 49.0463 24.4351C46.4286 33.7284 49.8241 47.2001 56.6303 54.5263Z" fill="url(#paint13_linear_1969_5650)"/>
<path d="M56.9394 53.4326C63.3028 60.2822 70.4478 58.7923 72.8957 50.1067C75.3435 41.4212 72.1713 28.8257 65.8079 21.9761C59.4445 15.1265 52.2996 16.6164 49.8517 25.302C47.4038 33.9876 50.5761 46.583 56.9394 53.4326Z" fill="url(#paint14_linear_1969_5650)"/>
<path d="M70.0686 51.0515C72.5146 42.3726 69.3449 29.7869 62.9865 22.9425C60.0563 19.7884 56.9591 18.4063 54.2326 18.6806C57.492 16.6513 61.8123 17.6477 65.8251 21.9673C72.1835 28.8116 75.3532 41.3974 72.9072 50.0763C71.5879 54.7568 68.9049 57.3385 65.7175 57.6615C67.6217 56.4748 69.165 54.255 70.0686 51.0515Z" fill="url(#paint15_linear_1969_5650)"/>
<path d="M48.4418 24.4889C49.6958 20.039 52.7987 17.3796 54.8316 16.786C52.5084 17.9384 50.2334 20.6539 49.172 24.4218C46.5549 33.7035 49.9446 47.1639 56.7437 54.4829C60.2845 58.2943 64.4359 59.4683 67.6027 58.6203C64.5651 59.8161 60.0543 58.8997 56.0135 54.5499C49.2143 47.231 45.8223 33.7727 48.4418 24.4889Z" fill="url(#paint16_radial_1969_5650)"/>
<path d="M56.9394 53.4326C63.3028 60.2822 70.4478 58.7923 72.8957 50.1067C75.3435 41.4212 72.1713 28.8257 65.8079 21.9761C59.4445 15.1265 52.2996 16.6164 49.8517 25.302C47.4038 33.9876 50.5761 46.583 56.9394 53.4326Z" fill="url(#paint17_radial_1969_5650)"/>
<path d="M49.2963 36.3354C50.4514 36.2912 58.2916 36.0221 58.3051 36.0185C58.7922 35.924 58.2926 36.3962 58.8296 36.9743C59.9127 38.1401 60.4531 40.2823 60.0363 41.7628C59.8291 42.4997 60.4211 42.7321 59.9362 42.8379C59.9227 42.8416 53.6969 45.2124 52.0005 45.8569C50.678 42.8592 49.7498 39.5852 49.2963 36.3354Z" fill="url(#paint18_linear_1969_5650)"/>
<path d="M58.4279 42.0352C59.5092 43.1991 60.7229 42.9474 61.139 41.4692C61.5552 39.991 61.0156 37.8521 59.9343 36.6881C58.8529 35.5242 57.637 35.778 57.2231 37.2541C56.807 38.7323 57.3465 40.8712 58.4279 42.0352Z" fill="url(#paint19_linear_1969_5650)"/>
<path d="M58.6632 41.1978C59.4063 41.9977 60.2417 41.8248 60.5254 40.8083C60.8113 39.7942 60.4408 38.3232 59.6977 37.5233C58.9545 36.7234 58.1191 36.8962 57.8332 37.9104C57.5495 38.9269 57.92 40.3979 58.6632 41.1978Z" fill="url(#paint20_linear_1969_5650)"/>
<path d="M57.0966 37.2966C57.2963 36.5902 57.6797 36.1634 58.1434 36.0407C57.7734 36.2234 57.4734 36.622 57.3038 37.2201C56.8881 38.6969 57.4272 40.8338 58.5074 41.9967C59.0698 42.602 59.6672 42.823 60.1714 42.6895C59.6322 42.9579 58.9403 42.7667 58.2979 42.0752C57.2177 40.9078 56.6809 38.7688 57.0966 37.2966Z" fill="url(#paint21_radial_1969_5650)"/>
<path opacity="0.4" d="M82.0503 45.9089C86.8532 44.7723 89.4144 38.5268 87.7709 31.9593C86.1274 25.3917 80.9015 20.9891 76.0986 22.1257" stroke="#EC4042" stroke-linecap="round"/>
<path d="M92.3589 49.4579C99.8957 47.556 103.788 37.6624 101.052 27.36C98.3164 17.0576 89.9889 10.2477 82.4521 12.1497" stroke="#EC4042" stroke-linecap="round"/>
</g>
<defs>
<filter id="filter0_d_1969_5650" x="2.63184" y="11.4052" width="103.845" height="67.6327" filterUnits="userSpaceOnUse" color-interpolation-filters="sRGB">
<feFlood flood-opacity="0" result="BackgroundImageFix"/>
<feColorMatrix in="SourceAlpha" type="matrix" values="0 0 0 0 0 0 0 0 0 0 0 0 0 0 0 0 0 0 127 0" result="hardAlpha"/>
<feOffset dy="4"/>
<feGaussianBlur stdDeviation="2"/>
<feComposite in2="hardAlpha" operator="out"/>
<feColorMatrix type="matrix" values="0 0 0 0 0 0 0 0 0 0 0 0 0 0 0 0 0 0 0.25 0"/>
<feBlend mode="normal" in2="BackgroundImageFix" result="effect1_dropShadow_1969_5650"/>
<feBlend mode="normal" in="SourceGraphic" in2="effect1_dropShadow_1969_5650" result="shape"/>
</filter>
<linearGradient id="paint0_linear_1969_5650" x1="32.5546" y1="49.129" x2="36.9414" y2="70.7767" gradientUnits="userSpaceOnUse">
<stop offset="0.0455" stop-color="#8566BD"/>
<stop offset="0.6111" stop-color="#8969C3"/>
<stop offset="0.7108" stop-color="#8D6CC4"/>
<stop offset="0.808" stop-color="#9975C7"/>
<stop offset="0.9039" stop-color="#AC83CB"/>
<stop offset="0.9192" stop-color="#B086CC"/>
<stop offset="0.9516" stop-color="#AD84CB"/>
<stop offset="0.973" stop-color="#A47ECA"/>
<stop offset="0.991" stop-color="#9673C6"/>
<stop offset="1" stop-color="#8B6BC4"/>
</linearGradient>
<linearGradient id="paint1_linear_1969_5650" x1="41.6804" y1="68.4485" x2="38.6375" y2="51.0622" gradientUnits="userSpaceOnUse">
<stop offset="0.0556" stop-color="#D1B4E3"/>
<stop offset="0.0826" stop-color="#CFB2E2"/>
<stop offset="0.4229" stop-color="#BE9AD6"/>
<stop offset="0.7376" stop-color="#B48BCF"/>
<stop offset="1" stop-color="#B086CC"/>
</linearGradient>
<radialGradient id="paint2_radial_1969_5650" cx="0" cy="0" r="1" gradientUnits="userSpaceOnUse" gradientTransform="translate(35.1176 68.3863) rotate(137.152) scale(8.16652 8.63435)">
<stop stop-color="white"/>
<stop offset="1"/>
</radialGradient>
<linearGradient id="paint3_linear_1969_5650" x1="38.6069" y1="58.6789" x2="34.1792" y2="60.9415" gradientUnits="userSpaceOnUse">
<stop offset="0.0354" stop-color="#6B24D6"/>
<stop offset="0.2945" stop-color="#7733DC"/>
<stop offset="0.7943" stop-color="#975CED"/>
<stop offset="1" stop-color="#A56EF4"/>
</linearGradient>
<linearGradient id="paint4_linear_1969_5650" x1="43.7344" y1="54.7309" x2="33.6529" y2="60.7686" gradientUnits="userSpaceOnUse">
<stop offset="0.0354" stop-color="#6B24D6"/>
<stop offset="0.2945" stop-color="#7733DC"/>
<stop offset="0.7943" stop-color="#975CED"/>
<stop offset="1" stop-color="#A56EF4"/>
</linearGradient>
<linearGradient id="paint5_linear_1969_5650" x1="34.994" y1="55.5122" x2="36.7587" y2="56.0898" gradientUnits="userSpaceOnUse">
<stop offset="0.0354" stop-color="#6B24D6"/>
<stop offset="0.2945" stop-color="#7733DC"/>
<stop offset="0.7943" stop-color="#975CED"/>
<stop offset="1" stop-color="#A56EF4"/>
</linearGradient>
<radialGradient id="paint6_radial_1969_5650" cx="0" cy="0" r="1" gradientUnits="userSpaceOnUse" gradientTransform="translate(34.6863 52.7328) rotate(137.153) scale(8.27199 8.74584)">
<stop stop-color="#8770B8"/>
<stop offset="1" stop-color="white"/>
</radialGradient>
<linearGradient id="paint7_linear_1969_5650" x1="13.7457" y1="34.3783" x2="18.7795" y2="59.2209" gradientUnits="userSpaceOnUse">
<stop stop-color="#5C1CCC"/>
<stop offset="0.0268" stop-color="#6323D0"/>
<stop offset="0.067" stop-color="#7538DA"/>
<stop offset="0.1151" stop-color="#9259EA"/>
<stop offset="0.1414" stop-color="#A56EF4"/>
<stop offset="0.2273" stop-color="#C994FF"/>
<stop offset="0.2836" stop-color="#AE7AF0"/>
<stop offset="0.3788" stop-color="#7945D1"/>
<stop offset="0.5404" stop-color="#4916A1"/>
<stop offset="0.6229" stop-color="#4B17A4"/>
<stop offset="0.6946" stop-color="#521AAF"/>
<stop offset="0.762" stop-color="#5D1EC1"/>
<stop offset="0.8182" stop-color="#6B24D6"/>
<stop offset="0.9433" stop-color="#5B1DBD"/>
<stop offset="1" stop-color="#531AB0"/>
</linearGradient>
<radialGradient id="paint8_radial_1969_5650" cx="0" cy="0" r="1" gradientUnits="userSpaceOnUse" gradientTransform="translate(23.2883 45.8081) rotate(137.159) scale(19.1993 20.2991)">
<stop offset="0.5808" stop-color="white"/>
<stop offset="0.6411" stop-color="#FBFAFC"/>
<stop offset="0.7135" stop-color="#EEEBF5"/>
<stop offset="0.7923" stop-color="#DAD3E9"/>
<stop offset="0.8754" stop-color="#BEB1D8"/>
<stop offset="0.9613" stop-color="#9986C3"/>
<stop offset="1" stop-color="#8770B8"/>
</radialGradient>
<linearGradient id="paint9_linear_1969_5650" x1="29.8079" y1="39.4707" x2="17.2437" y2="51.143" gradientUnits="userSpaceOnUse">
<stop offset="0.0354" stop-color="#A56EF4"/>
<stop offset="0.3636" stop-color="#C994FF"/>
<stop offset="0.5384" stop-color="#B379F5"/>
<stop offset="0.9117" stop-color="#7935DC"/>
<stop offset="1" stop-color="#6B24D6"/>
</linearGradient>
<radialGradient id="paint10_radial_1969_5650" cx="0" cy="0" r="1" gradientUnits="userSpaceOnUse" gradientTransform="translate(22.002 46.2973) rotate(137.158) scale(9.25487 9.785)">
<stop stop-color="white"/>
<stop offset="1"/>
</radialGradient>
<linearGradient id="paint11_linear_1969_5650" x1="33.6866" y1="27.6067" x2="39.8152" y2="57.8527" gradientUnits="userSpaceOnUse">
<stop offset="0.0101" stop-color="#C1A1D5"/>
<stop offset="0.0488" stop-color="#C8ABDA"/>
<stop offset="0.1149" stop-color="#DAC6E6"/>
<stop offset="0.1998" stop-color="#F7F2F9"/>
<stop offset="0.2222" stop-color="white"/>
<stop offset="0.2513" stop-color="#F9F5FB"/>
<stop offset="0.3001" stop-color="#E9DBF2"/>
<stop offset="0.3586" stop-color="#D1B4E3"/>
<stop offset="0.4264" stop-color="#B395D6"/>
<stop offset="0.4949" stop-color="#9C7DCB"/>
<stop offset="0.5583" stop-color="#8E6EC5"/>
<stop offset="0.6111" stop-color="#8969C3"/>
<stop offset="0.755" stop-color="#9471C6"/>
<stop offset="1" stop-color="#B086CC"/>
</linearGradient>
<linearGradient id="paint12_linear_1969_5650" x1="50.7138" y1="17.209" x2="59.5673" y2="60.9024" gradientUnits="userSpaceOnUse">
<stop stop-color="#5C1CCC"/>
<stop offset="0.0268" stop-color="#6323D0"/>
<stop offset="0.067" stop-color="#7538DA"/>
<stop offset="0.1151" stop-color="#9259EA"/>
<stop offset="0.1414" stop-color="#A56EF4"/>
<stop offset="0.2273" stop-color="#C994FF"/>
<stop offset="0.2836" stop-color="#AE7AF0"/>
<stop offset="0.3788" stop-color="#7945D1"/>
<stop offset="0.5404" stop-color="#4916A1"/>
<stop offset="0.6229" stop-color="#4B17A4"/>
<stop offset="0.6946" stop-color="#521AAF"/>
<stop offset="0.762" stop-color="#5D1EC1"/>
<stop offset="0.8182" stop-color="#6B24D6"/>
<stop offset="0.9433" stop-color="#5B1DBD"/>
<stop offset="1" stop-color="#531AB0"/>
</linearGradient>
<linearGradient id="paint13_linear_1969_5650" x1="72.3181" y1="27.5544" x2="50.4479" y2="47.8721" gradientUnits="userSpaceOnUse">
<stop offset="0.0354" stop-color="#A56EF4"/>
<stop offset="0.3636" stop-color="#C994FF"/>
<stop offset="0.5384" stop-color="#B379F5"/>
<stop offset="0.9117" stop-color="#7935DC"/>
<stop offset="1" stop-color="#6B24D6"/>
</linearGradient>
<linearGradient id="paint14_linear_1969_5650" x1="66.2511" y1="56.9158" x2="58.1675" y2="17.022" gradientUnits="userSpaceOnUse">
<stop offset="0.0101" stop-color="#C1A1D5"/>
<stop offset="0.0488" stop-color="#C8ABDA"/>
<stop offset="0.1149" stop-color="#DAC6E6"/>
<stop offset="0.1998" stop-color="#F7F2F9"/>
<stop offset="0.2222" stop-color="white"/>
<stop offset="0.2513" stop-color="#F9F5FB"/>
<stop offset="0.3001" stop-color="#E9DBF2"/>
<stop offset="0.3586" stop-color="#D1B4E3"/>
<stop offset="0.4264" stop-color="#B395D6"/>
<stop offset="0.4949" stop-color="#9C7DCB"/>
<stop offset="0.5583" stop-color="#8E6EC5"/>
<stop offset="0.6111" stop-color="#8969C3"/>
<stop offset="0.755" stop-color="#9471C6"/>
<stop offset="1" stop-color="#B086CC"/>
</linearGradient>
<linearGradient id="paint15_linear_1969_5650" x1="70.9309" y1="56.4836" x2="62.8946" y2="16.8243" gradientUnits="userSpaceOnUse">
<stop stop-color="#5C1CCC"/>
<stop offset="0.2273" stop-color="#BA85FF"/>
<stop offset="0.3788" stop-color="#7945D1"/>
<stop offset="0.5404" stop-color="#4916A1"/>
<stop offset="0.6139" stop-color="#4B17A4"/>
<stop offset="0.6777" stop-color="#521AAF"/>
<stop offset="0.7378" stop-color="#5D1EC1"/>
<stop offset="0.7879" stop-color="#6B24D6"/>
<stop offset="0.9339" stop-color="#5B1DBD"/>
<stop offset="1" stop-color="#531AB0"/>
</linearGradient>
<radialGradient id="paint16_radial_1969_5650" cx="0" cy="0" r="1" gradientUnits="userSpaceOnUse" gradientTransform="translate(58.8994 39.4115) rotate(137.158) scale(16.0011 16.9177)">
<stop stop-color="white"/>
<stop offset="1"/>
</radialGradient>
<radialGradient id="paint17_radial_1969_5650" cx="0" cy="0" r="1" gradientUnits="userSpaceOnUse" gradientTransform="translate(45.926 41.8397) rotate(137.158) scale(23.0949 24.4178)">
<stop stop-color="#8770B8"/>
<stop offset="1" stop-color="white"/>
</radialGradient>
<linearGradient id="paint18_linear_1969_5650" x1="55.716" y1="45.6089" x2="54.9294" y2="35.8044" gradientUnits="userSpaceOnUse">
<stop offset="0.0354" stop-color="#1E1F21"/>
<stop offset="0.2388" stop-color="#101012"/>
<stop offset="0.2677" stop-color="#0E0E0F"/>
<stop offset="0.345" stop-color="#131415"/>
<stop offset="0.4476" stop-color="#232326"/>
<stop offset="0.5644" stop-color="#3C3D41"/>
<stop offset="0.6869" stop-color="#5D6066"/>
<stop offset="1" stop-color="#37383C"/>
</linearGradient>
<linearGradient id="paint19_linear_1969_5650" x1="60.9208" y1="37.7489" x2="57.4456" y2="40.9775" gradientUnits="userSpaceOnUse">
<stop offset="0.0354" stop-color="#1E1F21"/>
<stop offset="0.3101" stop-color="#2C2E30"/>
<stop offset="0.84" stop-color="#515359"/>
<stop offset="1" stop-color="#5D6066"/>
</linearGradient>
<linearGradient id="paint20_linear_1969_5650" x1="60.377" y1="38.2537" x2="57.9893" y2="40.4719" gradientUnits="userSpaceOnUse">
<stop offset="0.0556" stop-color="#D1B4E3"/>
<stop offset="0.0826" stop-color="#CFB2E2"/>
<stop offset="0.4229" stop-color="#BE9AD6"/>
<stop offset="0.7376" stop-color="#B48BCF"/>
<stop offset="1" stop-color="#B086CC"/>
</linearGradient>
<radialGradient id="paint21_radial_1969_5650" cx="0" cy="0" r="1" gradientUnits="userSpaceOnUse" gradientTransform="translate(58.7617 39.6375) rotate(137.158) scale(2.55992 2.70656)">
<stop stop-color="white"/>
<stop offset="1"/>
</radialGradient>
</defs>
</svg>
